<svg width="111" height="38" viewBox="0 0 111 38" fill="none" xmlns="http://www.w3.org/2000/svg">
<path d="M13.8836 31.6879C12.1309 31.6879 10.6703 31.3343 9.50176 30.627C8.36401 29.9198 7.50301 28.9819 6.91876 27.8134C6.36526 26.6141 6.08851 25.2919 6.08851 23.8466V3.42727e-07H7.47226V23.8466C7.47226 25.6301 7.97963 27.1523 8.99438 28.413C10.0091 29.6738 11.6389 30.3041 13.8836 30.3041C16.1284 30.3041 17.7581 29.6738 18.7729 28.413C19.7876 27.1523 20.295 25.6301 20.295 23.8466V3.42727e-07H21.6788V23.8466C21.6788 25.2919 21.3866 26.6141 20.8024 27.8134C20.2489 28.9819 19.3879 29.9198 18.2194 30.627C17.0816 31.3343 15.6364 31.6879 13.8836 31.6879ZM13.8836 37.7764C11.0239 37.7764 8.54851 37.1614 6.45751 35.9314C4.39726 34.6706 2.79826 32.9794 1.66051 30.8576C0.553506 28.7359 6.13788e-06 26.3989 6.13788e-06 23.8466V3.42727e-07H1.38376V23.8466C1.38376 26.1529 1.87576 28.2593 2.85976 30.1658C3.87451 32.0723 5.30438 33.5944 7.14938 34.7321C9.02513 35.8391 11.2699 36.3926 13.8836 36.3926C16.4974 36.3926 18.7268 35.8391 20.5718 34.7321C22.4475 33.5944 23.8774 32.0723 24.8614 30.1658C25.8761 28.2593 26.3835 26.1529 26.3835 23.8466V3.42727e-07H27.7673V23.8466C27.7673 26.3989 27.1984 28.7359 26.0606 30.8576C24.9536 32.9794 23.37 34.6706 21.3098 35.9314C19.2495 37.1614 16.7741 37.7764 13.8836 37.7764ZM13.8836 34.7321C11.5774 34.7321 9.60938 34.2401 7.97963 33.2561C6.38063 32.2721 5.15063 30.9653 4.28963 29.3355C3.45938 27.675 3.04426 25.8454 3.04426 23.8466V3.42727e-07H4.42801V23.8466C4.42801 25.5994 4.78163 27.1984 5.48888 28.6436C6.22688 30.0581 7.30313 31.1959 8.71763 32.0569C10.1321 32.9179 11.8541 33.3484 13.8836 33.3484C15.9439 33.3484 17.6659 32.9179 19.0496 32.0569C20.4641 31.1959 21.525 30.0581 22.2323 28.6436C22.9703 27.1984 23.3393 25.5994 23.3393 23.8466V3.42727e-07H24.723V23.8466C24.723 25.8454 24.2925 27.675 23.4315 29.3355C22.6013 30.9653 21.3713 32.2721 19.7415 33.2561C18.1425 34.2401 16.1899 34.7321 13.8836 34.7321ZM63.1059 37.0845V3.42727e-07H64.4896V37.0845H63.1059ZM57.0174 37.0845V3.42727e-07H58.4011V37.0845H57.0174ZM60.0616 37.0845V3.42727e-07H61.4454V37.0845H60.0616ZM38.4751 37.0845V3.42727e-07H39.8589V37.0845H38.4751ZM32.3866 37.0845V3.42727e-07H33.7704V37.0845H32.3866ZM35.4309 37.0845V3.42727e-07H36.8146V37.0845H35.4309ZM55.3569 24.3079L41.5194 4.428V1.98337L55.3569 21.8633V24.3079ZM55.3569 29.6584L41.5194 9.7785V7.33387L55.3569 27.2138V29.6584ZM55.3569 35.0089L41.5194 15.129V12.6844L55.3569 32.5643V35.0089ZM75.1859 37.0845V3.42727e-07H76.5697V37.0845H75.1859ZM69.0974 37.0845V3.42727e-07H70.4812V37.0845H69.0974ZM72.1417 37.0845V3.42727e-07H73.5254V37.0845H72.1417ZM101.66 37.0845L80.1653 3.42727e-07H81.7796L103.274 37.0845H101.66ZM105.165 37.0845L83.7169 3.42727e-07H85.3313L106.779 37.0845H105.165ZM108.717 37.0845L87.2685 3.42727e-07H88.8829L110.331 37.0845H108.717ZM96.5858 10.0091L95.8016 8.71763L100.829 3.42727e-07H102.444L96.5858 10.0091ZM98.3385 13.0995L97.5083 11.7158L104.381 3.42727e-07H105.995L98.3385 13.0995ZM100.091 16.0976L99.261 14.8061L107.886 3.42727e-07H109.501L100.091 16.0976ZM79.335 37.0845L89.5748 19.5109L90.3589 20.8946L80.9494 37.0845H79.335ZM82.8405 37.0845L91.3275 22.5551L92.1116 23.9389L84.4549 37.0845H82.8405ZM86.3921 37.0845L93.0803 25.5994L93.8644 26.9831L88.0065 37.0845H86.3921Z" fill="#101F4A"/>
</svg>
